<?xml version="1.0" encoding="UTF-8" standalone="no"?>
<!-- Created with Inkscape (http://www.inkscape.org/) -->
<svg xmlns:dc="http://purl.org/dc/elements/1.1/" xmlns:cc="http://creativecommons.org/ns#" xmlns:rdf="http://www.w3.org/1999/02/22-rdf-syntax-ns#" xmlns:svg="http://www.w3.org/2000/svg" xmlns="http://www.w3.org/2000/svg" xmlns:xlink="http://www.w3.org/1999/xlink" xmlns:inkscape="http://www.inkscape.org/namespaces/inkscape" xmlns:sodipodi="http://sodipodi.sourceforge.net/DTD/sodipodi-0.dtd" version="1.1" width="526.69806" height="481.95419" id="svg2" inkscape:version="0.91 r13725" xmlns:ns1="http://sozi.baierouge.fr">
  <defs id="defs4">
    <linearGradient id="linearGradient4397">
      <stop id="stop4399" style="stop-color:#ff0000;stop-opacity:1" offset="0"/>
      <stop id="stop4401" style="stop-color:#ff9292;stop-opacity:1" offset="1"/>
    </linearGradient>
    <linearGradient id="linearGradient4385">
      <stop id="stop4387" style="stop-color:#d59469;stop-opacity:1" offset="0"/>
      <stop id="stop4389" style="stop-color:#FFA500;stop-opacity:1" offset="1"/>
    </linearGradient>
    <linearGradient id="linearGradient4363">
      <stop id="stop4365" style="stop-color:#ff5555;stop-opacity:1" offset="0"/>
      <stop id="stop4367" style="stop-color:#792d2d;stop-opacity:1" offset="1"/>
    </linearGradient>
    <linearGradient id="linearGradient4335">
      <stop id="stop4337" style="stop-color:#bad0e2;stop-opacity:1" offset="0"/>
      <stop id="stop4339" style="stop-color:#ffffff;stop-opacity:1" offset="1"/>
    </linearGradient>
    <linearGradient id="linearGradient4293">
      <stop id="stop4295" style="stop-color:#ffaaaa;stop-opacity:1" offset="0"/>
      <stop id="stop4297" style="stop-color:#ff4e4e;stop-opacity:1" offset="1"/>
    </linearGradient>
    <linearGradient id="linearGradient4246">
      <stop id="stop4248" style="stop-color:#e9afaf;stop-opacity:1" offset="0"/>
      <stop id="stop4250" style="stop-color:#f6dddd;stop-opacity:1" offset="1"/>
    </linearGradient>
    <linearGradient id="linearGradient4230">
      <stop id="stop4232" style="stop-color:#ffffff;stop-opacity:1" offset="0"/>
      <stop id="stop4234" style="stop-color:#cedb84;stop-opacity:1" offset="1"/>
    </linearGradient>
    <linearGradient id="linearGradient4222">
      <stop id="stop4224" style="stop-color:#550000;stop-opacity:1" offset="0"/>
      <stop id="stop4226" style="stop-color:#000000;stop-opacity:1" offset="1"/>
    </linearGradient>
    <linearGradient id="linearGradient4212">
      <stop id="stop4214" style="stop-color:#65962b;stop-opacity:1" offset="0"/>
      <stop id="stop4216" style="stop-color:#000000;stop-opacity:1" offset="1"/>
    </linearGradient>
    <linearGradient x1="307.56226" y1="357.27264" x2="303.28864" y2="304.58163" id="linearGradient4218" xlink:href="#linearGradient4212" gradientUnits="userSpaceOnUse"/>
    <linearGradient x1="304.73431" y1="355.46118" x2="301.17578" y2="304.94229" id="linearGradient4220" xlink:href="#linearGradient4212" gradientUnits="userSpaceOnUse"/>
    <linearGradient x1="396.09821" y1="462.76477" x2="377.25894" y2="410.62192" id="linearGradient4228" xlink:href="#linearGradient4222" gradientUnits="userSpaceOnUse"/>
    <linearGradient x1="452.54761" y1="367.50546" x2="437.81393" y2="360.18185" id="linearGradient4236" xlink:href="#linearGradient4230" gradientUnits="userSpaceOnUse"/>
    <linearGradient x1="298.48779" y1="421.44995" x2="292.38037" y2="400.23672" id="linearGradient4238" xlink:href="#linearGradient4230" gradientUnits="userSpaceOnUse"/>
    <linearGradient x1="423.02762" y1="395.54276" x2="396.71832" y2="400.34097" id="linearGradient4240" xlink:href="#linearGradient4230" gradientUnits="userSpaceOnUse"/>
    <linearGradient x1="340.9118" y1="417.69077" x2="361.96494" y2="410.11462" id="linearGradient4242" xlink:href="#linearGradient4230" gradientUnits="userSpaceOnUse"/>
    <linearGradient x1="349.9614" y1="392.90353" x2="348.44861" y2="335.90204" id="linearGradient4252" xlink:href="#linearGradient4246" gradientUnits="userSpaceOnUse"/>
    <linearGradient x1="188.50082" y1="269.10056" x2="170.51646" y2="248.74342" id="linearGradient4264" xlink:href="#linearGradient4246" gradientUnits="userSpaceOnUse"/>
    <linearGradient x1="434.59375" y1="217.23538" x2="519.8125" y2="217.23538" id="linearGradient4276" xlink:href="#linearGradient4246" gradientUnits="userSpaceOnUse"/>
    <linearGradient x1="188.50082" y1="269.10056" x2="170.51646" y2="248.74342" id="linearGradient4280" xlink:href="#linearGradient4246" gradientUnits="userSpaceOnUse"/>
    <linearGradient x1="473.87946" y1="208.66396" x2="510.52679" y2="191.5211" id="linearGradient4284" xlink:href="#linearGradient4246" gradientUnits="userSpaceOnUse"/>
    <linearGradient x1="344.37198" y1="289.94965" x2="358.44305" y2="338.94202" id="linearGradient4299" xlink:href="#linearGradient4293" gradientUnits="userSpaceOnUse"/>
    <linearGradient x1="288.21426" y1="265.66577" x2="280.17856" y2="229.05862" id="linearGradient4317" xlink:href="#linearGradient4246" gradientUnits="userSpaceOnUse"/>
    <linearGradient x1="288.21426" y1="265.66577" x2="280.17856" y2="229.05862" id="linearGradient4321" xlink:href="#linearGradient4246" gradientUnits="userSpaceOnUse"/>
    <linearGradient x1="274.90695" y1="311.77292" x2="298.5249" y2="303.18661" id="linearGradient4341" xlink:href="#linearGradient4335" gradientUnits="userSpaceOnUse"/>
    <linearGradient x1="417.25891" y1="278.1308" x2="393.879" y2="284.19171" id="linearGradient4343" xlink:href="#linearGradient4335" gradientUnits="userSpaceOnUse"/>
    <linearGradient x1="270.92444" y1="394.91599" x2="291.12082" y2="367.58633" id="linearGradient4359" xlink:href="#linearGradient4246" gradientUnits="userSpaceOnUse"/>
    <linearGradient x1="290.21014" y1="399.98932" x2="259.69226" y2="370.13065" id="linearGradient4361" xlink:href="#linearGradient4246" gradientUnits="userSpaceOnUse"/>
    <linearGradient x1="224.90811" y1="271.43155" x2="209.99553" y2="263.21729" id="linearGradient4369" xlink:href="#linearGradient4363" gradientUnits="userSpaceOnUse"/>
    <linearGradient x1="452.25894" y1="230.41476" x2="470.63394" y2="221.48619" id="linearGradient4377" xlink:href="#linearGradient4363" gradientUnits="userSpaceOnUse"/>
    <linearGradient x1="260.87634" y1="253.55403" x2="376.61874" y2="364.9826" id="linearGradient4391" xlink:href="#linearGradient4385" gradientUnits="userSpaceOnUse" gradientTransform="matrix(0.99192873,0,0,0.86645023,-0.56526669,28.599373)"/>
    <linearGradient x1="440.26468" y1="502.40662" x2="485.61996" y2="475.13248" id="linearGradient4403" xlink:href="#linearGradient4397" gradientUnits="userSpaceOnUse"/>
    <linearGradient x1="447.58829" y1="496.85077" x2="485.61996" y2="475.13248" id="linearGradient4407" xlink:href="#linearGradient4397" gradientUnits="userSpaceOnUse"/>
  </defs>
  <metadata id="metadata7">
    <rdf:RDF>
      <cc:Work rdf:about="">
        <dc:format>image/svg+xml</dc:format>
        <dc:type rdf:resource="http://purl.org/dc/dcmitype/StillImage"/>
        <dc:title/>
      </cc:Work>
    </rdf:RDF>
  </metadata>
  <g transform="translate(-105.53162,-107.56165)" id="layer1">
    <path d="m 378.16552,107.58173 c -7.34693,0.27897 -13.09938,3.46942 -13.14305,10.23494 -0.0777,12.0276 7.47735,35.70365 17.04877,34.49555 9.57143,-1.2081 27.19204,-33.7193 14.16598,-40.4524 -5.6989,-2.94572 -12.35741,-4.49507 -18.0717,-4.27809 z m -81.71013,18.30376 c -13.18985,0.13228 -28.83678,4.65717 -41.25803,16.16471 -23.38118,21.66125 0.0266,50.12647 -0.68195,64.361 -0.70853,14.23455 -7.81588,27.22357 -38.28225,24.74799 -30.46639,-2.47557 -73.66843,16.72945 -86.42179,42.10407 -12.75337,25.37461 12.73122,35.87258 36.1124,35.25369 37.093,2.53286 58.11685,30.94957 52.44823,49.52304 -5.66861,18.57348 -10.99536,28.46909 -35.08505,30.32576 -24.0897,1.85668 -28.67294,-6.80395 -47.80299,0.62276 -29.58519,11.48563 -44.636797,64.98764 -9.91929,78.60329 34.71751,13.61564 51.69985,-6.81944 70.82991,-23.52954 19.13005,-16.71012 66.60093,-12.36239 89.27359,-1.84121 22.67265,10.52118 24.79379,27.84632 9.20634,42.69975 -15.58745,14.85343 -63.03619,30.93691 -41.07205,72.40275 21.96414,41.46583 77.21102,36.50695 116.17965,20.41573 38.96862,-16.09121 24.80708,-57.54931 41.10305,-72.40275 16.29597,-14.85342 75.09432,-12.98902 82.88804,1.24553 7.79372,14.23453 29.04491,43.93367 58.80278,37.74473 29.75786,-6.18892 28.3541,-34.03911 21.97742,-47.65476 -6.37669,-13.61564 -19.83858,-10.51731 -44.6368,-16.70624 -24.79821,-6.18893 -30.47081,-56.95364 -15.59188,-67.47481 14.87894,-10.52119 16.99564,0.61888 48.17054,12.99675 31.17491,12.37786 45.3586,-10.50571 46.77564,-36.49922 1.41704,-25.9935 -73.67285,-6.18119 -87.13474,-16.08348 -13.46189,-9.90229 1.39934,-36.51856 21.94643,-43.94527 20.5471,-7.42672 65.88798,12.36239 83.60099,-15.4878 17.71301,-27.85018 -23.38118,-52.60977 -39.67715,-48.27752 -16.29597,4.33225 -38.25567,26.62787 -58.80277,28.48455 -20.54709,1.85668 -33.28275,-14.84957 -36.82536,-34.03525 -3.5426,-19.18569 73.66399,-49.52691 70.82991,-71.80706 -2.83408,-22.28015 -18.40382,-48.87321 -71.54286,-53.20546 -53.13904,-4.33225 -61.659,34.6348 -92.12538,52.5827 -30.46638,17.94789 -46.03611,3.11768 -56.66393,-4.92794 -10.6278,-8.0456 -12.76222,-37.75635 -21.26447,-48.27752 -3.98543,-4.93181 -13.71807,-8.23969 -25.35618,-8.12297 z m -124.17707,46.16555 c -1.97599,-0.0553 -3.90214,0.12057 -5.73459,0.56861 -19.5461,4.77906 -33.17206,16.19849 -16.95578,21.95909 16.21628,5.76062 54.32142,12.36521 60.35266,5.92977 5.46581,-5.83212 -18.56117,-27.92286 -37.66229,-28.45747 z m 50.61936,306.66923 c -16.32618,-0.0256 -71.08011,27.45177 -70.42694,44.56803 0.70852,18.56679 17.00892,30.92918 35.43045,14.83796 18.42154,-16.09122 48.16618,-53.40481 38.25125,-58.78323 -0.7746,-0.42019 -1.87119,-0.62059 -3.25476,-0.62276 z" id="path4188" style="fill:#784421;stroke:none"/>
    <path d="m 377.1116,111.04753 c -6.08954,-0.0291 -10.05682,5.71687 -7.81144,10.55986 1.40302,9.47659 3.15395,20.2966 11.46918,27.07657 4.98053,-0.32899 7.02232,-6.08629 9.57831,-9.20604 4.2048,-6.9766 8.86851,-15.74127 4.99064,-23.58369 -4.68386,-4.04455 -11.91318,-4.79583 -18.22669,-4.8467 z m -82.60907,18.35791 c -20.23315,1.0074 -42.22048,12.98786 -45.44273,31.46297 -2.59927,16.71873 9.95152,31.60226 9.36133,48.14215 -0.65751,11.57323 -9.72317,23.11536 -23.40854,24.86301 -14.79902,2.74994 -30.52859,-1.76361 -44.97255,3.26954 -24.79815,6.28995 -49.98667,20.23951 -58.70978,42.42899 -2.86896,7.88885 0.74251,17.31942 9.57831,20.90311 14.08487,7.05816 31.56718,2.45299 46.00069,8.88111 20.32291,7.32552 37.5423,25.02172 36.11241,45.00126 -1.76717,10.52161 -5.75055,21.54252 -14.38297,29.29685 -14.07112,10.44825 -34.52768,9.40264 -51.58029,6.36299 -15.80677,-3.28117 -30.96179,6.2062 -38.40624,17.65393 -8.7652,14.08112 -13.67126,32.73033 -3.71973,47.32984 7.26803,10.35101 22.48404,14.22967 35.67843,13.2946 19.38315,-1.60971 30.76559,-17.18472 44.10983,-27.48272 15.58151,-11.60641 37.81709,-12.62579 57.36855,-10.52903 18.90451,2.3398 40.16894,6.84385 51.77461,21.06181 8.75427,10.54755 5.09475,25.32427 -4.58767,34.38725 -12.95825,12.84595 -32.81795,20.07959 -42.40495,35.52446 -10.91147,16.95162 -1.12396,38.34708 13.62747,50.86679 18.92383,16.00783 48.24936,16.20739 72.23636,10.59702 17.51421,-4.28223 37.89908,-10.01552 46.21768,-25.58736 10.05152,-16.40344 5.54338,-37.25489 17.91671,-52.74516 10.90764,-10.90136 29.13198,-12.20766 44.66779,-12.75306 14.98737,0.0159 31.95545,1.07483 43.42788,10.34325 5.99923,6.84859 8.88931,15.31396 15.74687,21.71541 9.59941,11.1315 25.55482,21.16522 42.21897,17.13947 13.13988,-2.69763 22.22178,-14.01428 21.48145,-25.58736 0.38075,-9.95305 -2.24085,-23.16348 -15.03392,-26.10182 -13.73636,-3.89037 -30.58829,-2.17697 -41.41302,-11.83246 -11.31482,-10.26928 -14.65916,-25.44034 -15.62288,-39.2881 0.14597,-11.14162 1.52201,-25.1037 14.10399,-31.02975 7.02847,-3.8861 15.73617,-1.80119 21.86193,2.40269 13.72133,7.06565 28.0217,17.37422 44.87627,15.76569 13.97684,-3.05252 19.50229,-16.83936 21.37791,-28.00528 1.29827,-5.54277 2.60461,-13.89896 -5.13508,-16.21076 -12.64694,-3.9699 -26.74478,-2.53321 -40.01812,-2.11197 -12.54477,0.38223 -26.12817,2.13381 -37.91028,-2.24736 -10.83302,-6.03759 -9.77266,-19.92417 -4.1537,-28.64701 7.43548,-14.38289 24.36218,-26.1146 43.1799,-24.20645 18.61815,0.26709 39.76713,5.87173 56.38495,-4.14271 13.23333,-8.61015 15.13675,-27.14325 3.40975,-37.47398 -7.49529,-7.77488 -18.81532,-14.96429 -31.09076,-13.45705 -21.33918,7.17447 -36.05206,26.14187 -59.72505,28.42956 -14.19434,1.76619 -26.79157,-6.59023 -33.23727,-16.97617 -4.56364,-7.64587 -8.47203,-16.58147 -7.11867,-25.25951 5.08151,-13.08128 19.69406,-20.24998 30.80488,-29.13166 13.98164,-10.02326 30.25061,-18.67412 38.68131,-33.03908 2.45908,-9.11136 -2.67908,-18.36542 -6.94351,-26.42673 -12.34832,-18.88951 -38.00493,-27.02637 -61.65457,-28.34917 -18.00025,-1.42033 -36.68668,3.97508 -48.64849,16.05191 -16.60701,15.09314 -29.75065,34.99665 -53.27218,42.70425 -14.15178,5.20962 -31.03585,1.85806 -42.00332,-7.3356 -9.08137,-5.59734 -14.14641,-14.46847 -16.65748,-23.77192 -3.79377,-10.51576 -4.551,-22.86637 -13.06805,-31.46643 -6.1547,-4.18371 -14.33922,-4.85089 -21.88443,-4.68425 z m -124.14608,46.13848 c -8.86316,1.85533 -19.6019,4.57333 -23.89928,12.26568 1.24994,3.97463 7.74552,4.11953 11.41762,5.61217 15.5773,3.76741 32.37154,8.0338 48.53207,5.24554 0.98089,-3.37301 -3.78771,-6.14353 -5.56366,-8.89691 -7.69523,-7.57626 -18.63677,-14.03444 -30.48675,-14.22648 z m 52.60322,306.58799 c -21.41849,3.48921 -40.16664,14.80509 -56.50894,26.91411 -6.6995,5.02666 -12.41988,12.8995 -9.02035,20.6865 1.41824,7.04923 9.18338,14.77249 17.97871,11.61585 11.81163,-4.30717 18.33118,-14.84574 26.502,-22.98183 9.11419,-10.68631 18.8696,-21.81181 22.31949,-35.01618 -0.0171,-0.71687 -0.2122,-1.52907 -1.27091,-1.21845 z" id="path4379" style="fill:url(#linearGradient4391);fill-opacity:1;stroke:none"/>
    <path d="m 495.21875,175.25 c -0.83955,0.001 -1.65393,0.0147 -2.46875,0.0625 -25.04146,0.0197 -50.36984,12.55444 -63.46875,34.21875 -0.5754,0.5405 -0.95194,1.10904 -1.1875,1.6875 -0.16749,-0.0833 -0.33112,-0.16839 -0.5,-0.25 -9.13434,-5.10253 -19.88608,-6.19339 -29.4375,-9.84375 -5.42347,-5.12441 -12.46621,-9.11887 -20.15625,-8.65625 -6.60958,0.14141 -12.27774,4.53551 -17.03125,8.21875 -22.79156,0.45672 -45.75319,4.18356 -66.8125,12.90625 -12.87538,-2.82597 -24.33221,7.00083 -30.4375,17.3125 -5.72902,4.4063 -11.52869,9.18246 -16.875,14.40625 -1.88624,-2.1603 -5.34737,-3.60294 -7.09375,-5.59375 -12.22743,-8.61687 -27.17264,-13.10218 -42.15625,-12.6875 -16.32124,1.04924 -36.03371,3.86665 -45.34375,19 -5.92123,11.1637 1.04494,23.16094 6.3125,32.96875 6.46976,12.74142 13.77308,27.09759 27.5625,33 11.24942,3.39717 23.0098,-7.26243 21.96875,-18.6875 0.78567,-1.75424 -1.26639,-7.14341 0.9375,-6.5625 5.1354,1.96306 9.6488,5.00165 13.8125,8.5 -0.98021,21.70569 7.50976,43.228 4.3125,64.875 -11.01629,15.16712 -6.33594,35.70693 -0.21875,51.96875 6.99,19.74317 26.32123,33.61489 47.0625,34.9375 10.29809,0.78174 21.83211,2.79101 28.21875,11.78125 11.13206,13.41313 21.28841,27.70859 35.8125,37.625 21.58555,16.54332 49.69594,29.28578 77.4375,22.875 24.08867,-6.70724 39.45635,-29.1868 49.46875,-50.875 7.99629,-16.00193 13.2338,-33.29351 14.28125,-51.25 1.15438,-10.38986 6.17973,-19.87973 13.9375,-26.75 12.73815,-13.85986 20.28329,-32.98633 17.28125,-52 -1.13979,-14.88593 -9.26081,-31.04952 -24.71875,-34.90625 -4.32887,-1.88471 -11.07455,0.60257 -12.1875,-5.4375 -5.79696,-10.28099 -8.78304,-21.52351 -10.46875,-33.15625 -0.36537,-1.71887 -0.77726,-3.46029 -1.21875,-5.1875 3.8674,-8.14424 8.58009,-16.04524 16,-21.375 1.7078,9.68771 8.04778,20.98818 19.21875,20.75 12.30233,0.25053 18.84418,-12.89732 21.6875,-23.09375 3.9355,-13.52757 7.33424,-27.70631 6.625,-41.84375 -2.65704,-13.66694 -17.56304,-18.95828 -30.15625,-18.9375 z" id="path4196" style="fill:#000000;stroke:#000000;stroke-width:5;stroke-linecap:butt;stroke-linejoin:round;stroke-miterlimit:4;stroke-opacity:1;stroke-dasharray:none"/>
    <path d="m 378.6875,196.4375 c -0.61435,0.021 -1.22125,0.0943 -1.84375,0.1875 -19.91985,2.98094 -27.21875,37.59375 -27.21875,37.59375 0,0 1.41734,-17.25307 9.25,-29.59375 -8.15236,0.41813 -16.59872,1.2008 -25.3125,2.375 -12.23876,1.6492 -23.61731,4.78837 -34.03125,8.90625 14.38055,7.74958 22.4375,29.3125 22.4375,29.3125 0,0 -11.41032,-22.92658 -27.09375,-27.375 -0.19806,-0.056 -0.39424,-0.10616 -0.59375,-0.15625 -0.0314,-0.008 -0.0623,-0.0235 -0.0937,-0.0312 -0.44954,-0.11087 -0.91887,-0.20222 -1.375,-0.28125 -0.29623,-0.0511 -0.60727,-0.088 -0.90625,-0.125 -0.0104,-10e-4 -0.0209,0.001 -0.0312,0 -0.0209,-0.003 -0.0416,0.002 -0.0625,0 -0.48505,-0.0575 -0.94577,-0.10648 -1.4375,-0.125 -0.52191,-0.0202 -1.03352,-0.0263 -1.5625,0 -0.62419,0.031 -1.26961,0.0901 -1.90625,0.1875 -0.63334,0.0998 -1.26451,0.23326 -1.90625,0.40625 -0.49742,0.13409 -0.98662,0.30027 -1.46875,0.46875 -0.27384,0.0957 -0.54355,0.20619 -0.8125,0.3125 -0.47235,0.18704 -0.9488,0.37552 -1.40625,0.59375 -0.36915,0.1761 -0.73422,0.36718 -1.09375,0.5625 -0.27701,0.15064 -0.54117,0.30718 -0.8125,0.46875 -0.37053,0.22023 -0.73369,0.44793 -1.09375,0.6875 -0.0883,0.0588 -0.19357,0.0963 -0.28125,0.15625 -0.22633,0.15462 -0.43408,0.33811 -0.65625,0.5 -0.22854,0.16659 -0.46334,0.326 -0.6875,0.5 -0.12365,0.0959 -0.25268,0.18315 -0.375,0.28125 -0.22661,0.18188 -0.43417,0.3734 -0.65625,0.5625 -0.39388,0.33538 -0.7765,0.67462 -1.15625,1.03125 -0.33955,0.31801 -0.6716,0.6352 -1,0.96875 -0.0414,0.0421 -0.0838,0.0826 -0.125,0.125 -0.0104,0.0106 -0.0209,0.0206 -0.0312,0.0312 -0.35512,0.36592 -0.68917,0.74259 -1.03125,1.125 -0.21143,0.2358 -0.41849,0.47718 -0.625,0.71875 -0.27723,0.32476 -0.54408,0.6657 -0.8125,1 -0.0691,0.086 -0.15019,0.16342 -0.21875,0.25 -0.13047,0.16502 -0.24662,0.33292 -0.375,0.5 -0.2916,0.37889 -0.59413,0.73645 -0.875,1.125 -0.34838,0.4823 -0.66791,0.97397 -1,1.46875 -0.59686,0.88926 -1.17345,1.80087 -1.71875,2.71875 -0.003,0.005 -0.0286,-0.005 -0.0312,0 -6.89266,11.60026 -9.6875,24.90625 -9.6875,24.90625 0,0 0.85708,-10.45616 5,-21.375 -12.76146,9.95866 -22.09269,20.60004 -27.3125,29.25 -12.5,20.71428 -6.8125,50.34822 -4.3125,63.5625 2.5,13.21429 1.09375,31.0625 1.09375,31.0625 0,0 -3.75112,3.21317 -5.71652,10.97991 -1.9654,7.76674 -2.14509,20.08705 4.99777,38.30134 14.28572,36.42857 48.57589,31.44197 58.21875,34.65625 9.64286,3.21429 14.28125,7.15178 26.78125,23.9375 12.5,16.78571 50.00893,49.98661 88.9375,47.84375 38.92857,-2.14286 56.41964,-49.29465 63.5625,-66.4375 7.14285,-17.14286 4.64285,-29.63393 10,-46.0625 5.35714,-16.42857 35.82571,-28.16637 27.125,-72.125 -5.85288,-29.57055 -32.125,-26.09375 -32.125,-26.09375 0,0 -4.29465,-8.20535 -8.9375,-18.5625 -4.64286,-10.35714 -3.57589,-34.99108 -20.71875,-58.5625 -8.57494,-11.79055 -23.52196,-19.02717 -42.59375,-22.46875 7.57977,10.16999 11.71875,22.03125 11.71875,22.03125 0,0 -14.95518,-32.93298 -34,-32.28125 z" id="path4133" style="fill:#ffaaaa;stroke:none"/>
    <path d="m 331.8351,406.1171 a 50.633896,43.184021 0 1 1 -101.26779,0 50.633896,43.184021 0 1 1 101.26779,0 z" transform="matrix(1,0,0,0.95307858,0.46174758,8.0619)" id="path4349" style="fill:url(#linearGradient4359);fill-opacity:1;stroke:none"/>
    <path d="m 315.17856,269.05862 a 28.75,43.482143 0 1 1 -57.5,0 28.75,43.482143 0 1 1 57.5,0 z" transform="translate(4.1071429,-4.6428572)" id="path4301" style="fill:url(#linearGradient4317);fill-opacity:1;stroke:none"/>
    <path d="m 331.8351,406.1171 a 50.633896,43.184021 0 1 1 -101.26779,0 50.633896,43.184021 0 1 1 101.26779,0 z" transform="matrix(1,-0.16161931,0,0.95307858,173.19784,13.314434)" id="path4351" style="fill:url(#linearGradient4361);fill-opacity:1;stroke:none"/>
    <path d="m 450.25,334.90625 c -10.10486,-0.12046 -17.21875,8.34375 -17.21875,8.34375 0,0 6.90323,-4.17353 14.5625,-4.21875 -9.80208,13.44505 -33.10482,40.43271 -71.8125,56.46875 -39.2153,16.24634 -81.16311,-1.85263 -100.375,-12.40625 0.0984,-0.0648 0.18217,-0.15711 0.28125,-0.21875 6.9896,-4.34823 16.09375,-3.84375 16.09375,-3.84375 0,0 -10.96918,-4.36191 -20,1.28125 -9.03081,5.64315 -8.375,19.34375 -8.375,19.34375 0,0 2.69067,-6.21863 6.71875,-11.40625 28.46926,40.36362 79.47155,125.05255 134.9375,114.59375 1.20949,-0.22806 2.3773,-0.4937 3.53125,-0.78125 4.27714,14.25914 12.99804,27.39657 23.28125,37.59375 17.84148,16.55347 47.13237,22.71579 68.6875,9.71875 14.65075,-9.27965 20.84108,-27.70375 17.25,-44.3125 -2.90453,-17.06316 -15.58086,-31.16523 -31.25,-37.78125 -11.39529,-5.99864 -24.6122,-9.02266 -35.125,-16.53125 9.03696,-32.98913 4.39911,-75.67966 4.84375,-109.6875 6.08013,2.66681 11.5,7 11.5,7 0,0 -5.90625,-12.41072 -16.53125,-13.125 -0.33203,-0.0223 -0.67404,-0.0274 -1,-0.0312 z" id="path4052" style="fill:#000000;stroke:none"/>
    <path d="m 312.375,401.75 c 1.11701,4.03891 8.82573,30.74357 19.0625,36.6875 11.07143,6.42857 30.87054,0.17857 33.90625,-3.75 2.39565,-3.10024 1.17508,-23.53027 0.53125,-32.25 -19.01882,5.31828 -37.82991,3.43215 -53.5,-0.6875 z" id="path4076" style="fill:url(#linearGradient4242);fill-opacity:1;stroke:none"/>
    <path d="m 453.6875,386.53125 c -3.93702,6.14556 -10.87885,10.64806 -16.71875,14.75 -0.41592,5.56878 -5.04359,9.50328 -9.4375,12.34375 -7.99599,4.75897 -17.20275,12.25034 -27.0625,8.90625 -8.25467,-7.11998 -10.92946,-18.08053 -15,-27.96875 -2.95719,1.46748 -6.02393,2.86748 -9.1875,4.21875 -2.18924,0.9351 -4.36825,1.77294 -6.5625,2.5 0.43702,6.81681 0.91998,13.63549 0.90625,20.46875 0.17057,6.35637 0.67165,14.5422 -6.0625,17.875 -11.78951,5.24534 -27.98556,8.13896 -38.375,-1.46875 -5.96555,-1.88682 -12.92906,-1.72753 -19.375,-3.21875 4.3994,5.52049 9.14667,11.40803 14.40625,17.65625 32.16331,38.20904 58.76837,49.78201 86.46875,45.59375 -1.83424,-7.71676 -2.32976,-15.69998 -1.03125,-23.6875 0.42245,-9.41066 8.95819,-17.19131 18.4375,-16.75 -0.22623,-11.41514 10.91901,-20.35809 21.875,-19.90625 1.11696,-0.0852 2.24247,0.0143 3.34375,0.1875 0.32691,-1.57724 0.68618,-3.26868 0.96875,-4.625 1.69922,-8.15628 2.27845,-27.75733 2.40625,-46.875 z" id="path4068" style="fill:url(#linearGradient4228);fill-opacity:1;stroke:none"/>
    <path d="m 433.03125,360.40625 c -10.14,10.10411 -24.71247,22.18876 -43.84375,32.25 3.56839,9.25279 9.51345,24.33296 13.65625,26.84375 5.89286,3.57143 28.57589,-10.51786 30.71875,-15.875 1.72212,-4.30528 0.17229,-32.09255 -0.53125,-43.21875 z" id="path4078" style="fill:url(#linearGradient4240);fill-opacity:1;stroke:none"/>
    <path d="m 315.17856,269.05862 a 28.75,43.482143 0 1 1 -57.5,0 28.75,43.482143 0 1 1 57.5,0 z" transform="matrix(0.94725573,0,0.02723117,1,103.04855,-25.892857)" id="path4319" style="fill:url(#linearGradient4321);fill-opacity:1;stroke:none"/>
    <path d="m 388.71875,232.15625 c -16.09044,0 -25.42287,23.94971 -20.875,53.5 1.91885,12.46791 6.02162,23.9353 11.3125,33.03125 -7.60509,-0.82353 -15.78329,-0.28785 -24.09375,1.84375 -7.68464,1.97108 -14.73231,5.11711 -20.90625,9.09375 0.69322,-6.92117 0.45943,-14.60764 -0.84375,-22.71875 -4.85091,-30.19234 -22.71242,-54.65625 -39.875,-54.65625 -17.16258,0 -27.13216,24.46391 -22.28125,54.65625 2.7006,16.80868 9.44747,31.84605 17.84375,41.875 -23.05972,-2.70616 -32.03125,8.75 -32.03125,8.75 21.0065,-8.57605 40.45288,-5.09487 53.90625,-0.0625 -2.47111,6.83743 -3.19904,14.02925 -1.75,21.0625 4.99288,24.23409 33.66979,37.53761 64.03125,29.75 30.36146,-7.78761 50.93038,-33.73466 45.9375,-57.96875 -1.48757,-7.22026 -5.11034,-13.45414 -10.21875,-18.46875 10.37097,-10.26058 27.93596,-22.57843 52.5,-22.46875 0,0 -13.53124,-7.83333 -35.25,5.15625 -0.0854,0.0511 -0.16504,0.10501 -0.25,0.15625 1.66329,-8.36484 1.86637,-18.32567 0.21875,-29.03125 -4.54787,-29.55029 -21.28456,-53.5 -37.375,-53.5 z" id="path4000" style="fill:#000000;stroke:none"/>
    <path d="m 294.09375,256.25 c -15.9055,0 -25.15185,22.67535 -20.65625,50.65625 2.86871,17.85501 10.64976,33.53801 20.03125,42.5625 7.1626,1.30103 13.2381,3.44395 18.28125,5.78125 2.39616,-5.6771 5.99031,-11.07396 10.59375,-15.90625 -5.16798,-1.48391 -10.19708,-10.37665 -11.65625,-21.125 -1.60017,-11.78695 1.71359,-21.34375 7.375,-21.34375 5.66141,0 11.52483,9.5568 13.125,21.34375 0.72056,5.3077 0.43722,10.14072 -0.59375,13.875 0.25093,-0.18555 0.49561,-0.37987 0.75,-0.5625 1.14172,-7.28712 1.12402,-15.68404 -0.3125,-24.625 -4.4956,-27.9809 -21.032,-50.65625 -36.9375,-50.65625 z" id="path3984" style="fill:#ffffff;stroke:none"/>
    <path d="m 273.25,384.90625 -1.53125,1.75 c 0,0 10.30686,16.81425 31.75,44.09375 2.99617,0.81012 6.32307,1.57365 9.9375,2.125 3.07399,0.46891 6.3151,0.73318 9.53125,0.875 -6.99751,-9.56813 -10.46123,-21.55285 -13.875,-32.90625 -21.17571,-6.14877 -35.8125,-15.9375 -35.8125,-15.9375 z" id="path4072" style="fill:url(#linearGradient4238);fill-opacity:1;stroke:none"/>
    <path d="m 389.34375,236.0625 c -14.91946,0 -23.62315,22.19399 -19.40625,49.59375 1.98391,12.89071 6.47282,24.6192 12.21875,33.4375 1.47982,0.23505 2.91784,0.50405 4.34375,0.84375 -4.61948,-2.09113 -9.85404,-10.48819 -12.4375,-20.5625 -2.98631,-11.64523 -1.28535,-20.57616 3.71875,-21.09375 6.9058,-0.71429 12.6744,9.00209 15.66071,20.64732 2.98631,11.64523 1.43259,21.27232 -4.84821,21.54018 -0.0417,0.002 -0.0831,10e-4 -0.125,0 7.26973,2.01369 13.71287,5.38135 18.84375,9.90625 3.7775,-4.43954 8.83376,-9.28578 15.53125,-13.75 2.38743,-8.48929 2.92763,-19.25593 1.125,-30.96875 -4.2169,-27.39976 -19.70554,-49.59375 -34.625,-49.59375 z" id="path3986" style="fill:#ffffff;stroke:none"/>
    <path d="m 334.28572,316.29074 a 32.67857,52.5 0 1 1 -65.35714,0 32.67857,52.5 0 1 1 65.35714,0 z" transform="matrix(0.24013781,0,0.04224785,0.31120109,235.15809,219.78996)" id="path3992" style="fill:url(#linearGradient4220);fill-opacity:1;stroke:none"/>
    <path d="m 450.6875,339.5 c 0,0 -5.05696,7.88502 -15.3125,18.5 0.79645,13.16376 1.88747,26.40196 1.3125,39.53125 3.43663,-2.23337 8.27159,-5.65325 11.5625,-9.09375 1.92892,-2.0166 3.80959,-4.5514 5.46875,-7 0.0586,-21.58849 -0.40625,-41.1875 -0.40625,-41.1875 l -2.625,-0.75 z" id="path4074" style="fill:url(#linearGradient4236);fill-opacity:1;stroke:none"/>
    <path d="m 334.28572,316.29074 a 32.67857,52.5 0 1 1 -65.35714,0 32.67857,52.5 0 1 1 65.35714,0 z" transform="matrix(0.22487151,0,0.08308744,0.31730848,289.65783,199.82254)" id="path3994" style="fill:url(#linearGradient4218);fill-opacity:1;stroke:none"/>
    <path d="m 334.28572,316.29074 a 32.67857,52.5 0 1 1 -65.35714,0 32.67857,52.5 0 1 1 65.35714,0 z" transform="matrix(0.14133819,0,0.05222284,0.21268468,324.16017,231.9211)" id="path4345" style="fill:#000000;stroke:none"/>
    <path d="m 334.28572,316.29074 a 32.67857,52.5 0 1 1 -65.35714,0 32.67857,52.5 0 1 1 65.35714,0 z" transform="matrix(0.12254527,0,0.04527907,0.17867107,327.52214,236.09535)" id="path3996" style="fill:#ffffff;stroke:none"/>
    <path d="m 334.28572,316.29074 a 32.67857,52.5 0 1 1 -65.35714,0 32.67857,52.5 0 1 1 65.35714,0 z" transform="matrix(0.14133819,0,0.03298184,0.21268468,268.12154,250.86146)" id="path4347" style="fill:#000000;stroke:none"/>
    <path d="m 334.28572,316.29074 a 32.67857,52.5 0 1 1 -65.35714,0 32.67857,52.5 0 1 1 65.35714,0 z" transform="matrix(0.12014462,0,0.02113725,0.17103968,274.01339,255.44312)" id="path3998" style="fill:#ffffff;stroke:none"/>
    <path d="m 200.8125,231.03125 c -3.45641,-0.0778 -7.0945,0.12024 -10.90625,0.59375 -40.65864,5.05076 -37.37421,25.49905 -34.34375,31.8125 3.03046,6.31346 20.20494,48.72557 37.125,44.9375 16.92005,-3.78807 9.8336,-23.46176 10.84375,-36.59375 C 204.5414,258.64927 208.34866,246 217.1875,246 c 5.04327,0 13.11102,6.00164 19.125,11.15625 2.35061,-3.12426 4.9225,-6.08444 7.65625,-8.9375 -7.85323,-7.11685 -22.25288,-16.71712 -43.15625,-17.1875 z" id="path4155" style="fill:#ffaaaa;stroke:none"/>
    <path d="m 216.21875,248.8125 c -1.47195,0.12694 -2.82868,0.84597 -3.84375,2.46875 -5.89939,9.0435 -5.08862,20.15816 -4.6875,30.78125 4.14795,1.32294 8.57711,3.27434 12.53125,6.125 1.08445,0.78181 2.0627,1.55197 3,2.3125 0.10022,-0.88047 0.20598,-1.7438 0.34375,-2.625 1.01233,-10.38492 5.03679,-19.61292 10.71875,-27.875 -3.39799,-3.06741 -6.93478,-5.97157 -10.875,-8.40625 -1.94853,-1.55797 -4.73425,-2.99281 -7.1875,-2.78125 z" id="path4157" style="fill:url(#linearGradient4369);fill-opacity:1;stroke:none"/>
    <path d="m 493.09375,179.34375 c -3.93867,0.0748 -8.38695,0.49487 -13.4375,1.34375 -27.77804,4.66883 -41.75378,22.14823 -47.78125,32.625 3.40375,2.07857 6.48503,4.5188 9.28125,7.25 4.29476,-6.94154 11.10397,-16.67969 16.46875,-18.28125 8.46948,-2.52842 15.71305,8.48698 20.4375,20.78125 4.72444,12.29427 3.5784,33.17908 20.875,31.96875 17.29662,-1.21033 21.62094,-46.77098 22.71875,-53.6875 0.96058,-6.05195 -0.99182,-22.52341 -28.5625,-22 z" id="path4166" style="fill:#ffaaaa;stroke:none"/>
    <path d="m 460.46875,204.59375 c -0.36706,-0.006 -0.73206,0.0189 -1.09375,0.0937 -2.41126,0.49905 -4.67231,2.66849 -6.09375,4.71875 -3.75824,4.22324 -6.77435,8.95187 -9.59375,13.78125 7.78997,8.63721 13.08078,19.61903 16.5625,30.90625 1.39057,-2.92205 3.44606,-6.52346 6.53125,-10.53125 2.97345,-3.86265 6.68507,-6.98329 10.28125,-9.4375 -2.65445,-10.29392 -5.07267,-21.17822 -13.3125,-28.15625 -1.07765,-0.94879 -2.18007,-1.35753 -3.28125,-1.375 z" id="path4168" style="fill:url(#linearGradient4377);fill-opacity:1;stroke:none"/>
    <path d="m 426.60715,374.95148 a 59.285713,42.410713 0 1 1 -118.57142,0 59.285713,42.410713 0 1 1 118.57142,0 z" transform="matrix(0.87398241,-0.22417344,0.20091184,0.97517222,-32.257516,81.117207)" id="path4028" style="fill:#e9afaf;stroke:none"/>
    <path d="m 426.60715,374.95148 a 59.285713,42.410713 0 1 1 -118.57142,0 59.285713,42.410713 0 1 1 118.57142,0 z" transform="matrix(0.76223473,-0.19551055,0.17522319,0.85048638,18.421802,117.33985)" id="path4244" style="fill:url(#linearGradient4252);fill-opacity:1;stroke:none"/>
    <path d="m 448.57143,441.6479 c 0,0 -17.67857,-1.07143 -19.46429,14.64285 -1.78571,15.71429 14.28572,29.46429 14.28572,29.46429 0,0 -16.25,-6.07143 -18.57143,-23.92857 -4.46429,0.35714 -15,-0.53572 -15.17857,21.60714 -0.17857,22.14286 18.39286,60 51.25,67.32143 32.85714,7.32143 56.96428,-11.78572 53.39286,-41.42857 C 510.71429,479.68361 487.5,472.71932 478.21429,467.8979 468.92857,463.07647 449.64286,457.54075 447.5,452.18361 c -2.14286,-5.35714 1.07143,-10.53571 1.07143,-10.53571 z" id="path4117" style="fill:#ff0000;stroke:none"/>
    <path d="m 341.6841,376.31759 c 0,0 -3.85538,-22.60529 4.04061,-26.1377 9.59645,-4.29314 7.07107,15.02602 7.07107,15.02602 0,0 0.7758,-12.11584 -5.17703,-11.36421 -6.04336,0.76306 -5.93465,22.47589 -5.93465,22.47589 z" id="path4048" style="fill:#000000;stroke:none"/>
    <path d="m 393.46582,361.82076 c 0,0 -7.29768,-19.72849 -15.99925,-19.18508 -10.57551,0.66045 0.83971,15.03749 0.83971,15.03749 0,0 -6.44009,-9.36119 -0.78707,-11.29999 5.739,-1.96828 15.94661,15.44758 15.94661,15.44758 z" id="path4050" style="fill:#000000;stroke:none"/>
    <path d="m 195.8125,235.21875 c -13.02738,0.99718 -28.63611,2.94997 -36.5625,14.71875 -4.38274,10.59109 4.71286,20.06271 8.39382,29.38982 5.03987,9.49446 10.79291,19.83914 20.63743,24.95393 7.25245,2.06476 13.29332,-6.02203 11.71875,-12.90625 -0.17628,-15.133 -2.7597,-32.85423 7.84375,-45.21875 5.20942,-5.99597 14.01478,-4.65292 19.84375,-0.40625 2.89183,1.54841 5.55922,4.06738 8.09375,5.5625 1.59593,-1.52756 4.12138,-3.26474 0.5,-4.21875 -11.56878,-8.52169 -26.12507,-12.97847 -40.46875,-11.875 z" id="path4254" style="fill:url(#linearGradient4280);fill-opacity:1;stroke:none"/>
    <path d="m 492.90625,183.3125 c -21.54624,0.0688 -44.04381,10.24472 -55.4375,28.75 1.46078,0.973 2.98649,4.23945 4,0.84375 4.81901,-7.18377 12.02671,-17.23834 22.125,-14.40625 11.90722,4.62323 16.5417,18.16612 20.15625,29.3125 2.19596,7.91618 2.23599,19.84823 11.5,23.1875 9.35518,1.48694 13.21628,-9.31687 15.59375,-16.34375 3.9651,-12.51373 6.60223,-25.74028 6.6875,-38.8125 -2.20065,-10.67699 -15.56337,-12.84469 -24.625,-12.53125 z" id="path4266" style="fill:url(#linearGradient4284);fill-opacity:1;stroke:none"/>
    <path d="m 367.0625,263.40625 -43.65625,13.53125 c 4.60038,8.60595 8.12781,18.89965 9.90625,29.96875 1.30318,8.11111 1.53697,15.79758 0.84375,22.71875 6.17394,-3.97664 13.22161,-7.12267 20.90625,-9.09375 8.31046,-2.1316 16.48866,-2.66728 24.09375,-1.84375 -5.29088,-9.09595 -9.39365,-20.56334 -11.3125,-33.03125 -1.22295,-7.94624 -1.42719,-15.47051 -0.78125,-22.25 z" id="path4286" style="fill:url(#linearGradient4299);fill-opacity:1;stroke:none"/>
    <path d="m 293.65625,260.28125 c -10.65055,0.902 -15.12972,13.04891 -16.53125,22.09375 -2.85746,22.37362 2.925,47.13587 18.6875,63.40625 4.79418,0.63396 9.68095,3.2776 14.09375,3.875 1.70155,-3.44604 4.27564,-6.38161 6.3125,-9.625 C 306.21632,329.5413 303.84887,312.70626 308.75,299.375 c 2.55275,-5.57486 10.17436,-8.74432 15.28125,-4.5625 -4.44442,-13.8035 -12.39695,-29.4638 -27.0625,-34.25 -1.08865,-0.18731 -2.20454,-0.38523 -3.3125,-0.28125 z" id="path4323" style="fill:url(#linearGradient4341);fill-opacity:1;stroke:none"/>
    <path d="m 388.4375,240.15625 c -10.61183,1.72191 -13.82337,14.42777 -15.0625,23.53125 -0.30019,3.70013 -1.0657,9.42987 -0.0625,12.0625 5.52938,-3.67574 12.02647,0.47082 14.9375,5.5 7.4182,10.06569 10.94972,23.37096 8.71875,35.6875 -2.62067,3.27762 3.71715,2.89211 5.26535,4.94931 2.55739,1.87134 5.07555,3.95128 7.0159,0.48819 4.30051,-4.48039 12.09813,-7.25916 11.15625,-14.65625 2.37343,-22.30118 -3.73581,-46.38997 -19.71875,-62.46875 -3.37431,-2.96874 -7.53143,-5.5478 -12.25,-5.09375 z" id="path4325" style="fill:url(#linearGradient4343);fill-opacity:1;stroke:none"/>
    <path d="m 442.78125,446.09375 c -8.12927,1.50624 -11.92055,11.00726 -9.03125,18.21875 3.39422,11.55351 13.27549,19.24058 21.1875,27.78125 -14.21293,-0.29427 -27.75505,-9.3202 -32.46875,-22.84375 -0.2494,-2.88312 -1.92599,-4.03136 -4.15625,-1.71875 -7.05748,7.65637 -4.51987,19.4308 -2.90625,28.75 6.15313,24.74762 26.05381,48.69061 52.3125,51.6875 16.14576,2.46666 35.82445,-4.48207 41,-21.28125 6.23064,-18.62922 -2.76085,-40.54547 -20.35929,-49.35523 -12.95859,-7.83596 -28.60996,-11.09704 -41.17196,-19.51977 -3.69446,-2.6682 -4.97239,-7.7256 -4.40625,-11.71875 z" id="path4393" style="fill:url(#linearGradient4407);fill-opacity:1;stroke:none"/>
  </g>
</svg>
